<svg width="70" height="70" viewBox="0 0 70 70" fill="none" xmlns="http://www.w3.org/2000/svg">
<path d="M14.5833 37.2155C14.5833 33.2553 14.5833 31.2753 15.3839 29.5348C16.1844 27.7943 17.6877 26.5057 20.6945 23.9285L23.6112 21.4285C29.0458 16.7702 31.7632 14.441 35 14.441C38.2368 14.441 40.9542 16.7702 46.3889 21.4285L49.3055 23.9285C52.3123 26.5057 53.8156 27.7943 54.6162 29.5348C55.4167 31.2753 55.4167 33.2553 55.4167 37.2155V49.5833C55.4167 55.083 55.4167 57.8329 53.7081 59.5414C51.9996 61.2499 49.2497 61.2499 43.75 61.2499H26.25C20.7503 61.2499 18.0004 61.2499 16.2919 59.5414C14.5833 57.8329 14.5833 55.083 14.5833 49.5833V37.2155Z" stroke="#33363F" stroke-width="2"/>
<path d="M42.2917 61.25V44.75C42.2917 44.1977 41.844 43.75 41.2917 43.75H28.7083C28.1561 43.75 27.7083 44.1977 27.7083 44.75V61.25" stroke="#33363F" stroke-width="2" stroke-linecap="round" stroke-linejoin="round"/>
</svg>
